# xmcd CD database file
#
# Track frame offsets:
#	150
#	14368
#	26463
#	50607
#	63360
#	88158
#	108199
#	123456
#	157104
#	162561
#	172984
#	191191
#	212991
#	234825
#	251577
#	264882
#	285285
#	303318
#	318275
#	337285
#
# Disc length: 4781 seconds
#
# Revision: 0
# Processed by: cddbd v1.5.2PL0 Copyright (c) Steve Scherf et al.
# Submitted via: CDex 1.51
#
DISCID=1912ab14
DTITLE=Various Artist - Pool Tunes 11
DYEAR=2008
DGENRE=Country
TTITLE0=Ashton Sheppard - Takin' Off This Pain
TTITLE1=Spin Doctors - Have You Ever Seen The Rain?
TTITLE2=The Allman Brothers Band - Whipping Post
TTITLE3=Alabama - I'm In A Hurry (And Don't Know Why)
TTITLE4=Kenny Wayne Shepard - Blue on Black
TTITLE5=Tom Cochrane - Life Is A Highway
TTITLE6=Garth Brooks - More Than A Memory
TTITLE7=Eagles - The Last Resort
TTITLE8=Badlees, the - Grill the Sucker
TTITLE9=The Brian Setzer Orchestra - This Cat's On A Hot Tin Roof
TTITLE10=Carrie Underwood - Last Name
TTITLE11=Osborne, Joan - Man in the Long Black Coat
TTITLE12=Alannah Myles - Black Velvet
TTITLE13=Dierks Bentley - Settle For A Slowdown
TTITLE14=The Grateful Dead - The Race Is On
TTITLE15=Rolling Stones - Angie
TTITLE16=Santana - Smooth (Forget About It)
TTITLE17=MARY CHAPIN CARPENTER - Down At The Twist And Shout (Live - Super Bowl XXXI)
TTITLE18=Jerry Jeff Walker - Where Was I
TTITLE19=Bruce Springsteen - American Land
EXTD=YEAR: 2008
EXTT0=
EXTT1=
EXTT2=
EXTT3=
EXTT4=
EXTT5=
EXTT6=
EXTT7=
EXTT8=
EXTT9=
EXTT10=
EXTT11=
EXTT12=
EXTT13=
EXTT14=
EXTT15=
EXTT16=
EXTT17=
EXTT18=
EXTT19=
PLAYORDER=
